<?xml version="1.0" encoding="UTF-8" standalone="no"?>
<!DOCTYPE svg PUBLIC "-//W3C//DTD SVG 1.1//EN" "http://www.w3.org/Graphics/SVG/1.1/DTD/svg11.dtd">
<svg version="1.1" xmlns="http://www.w3.org/2000/svg" xmlns:xlink="http://www.w3.org/1999/xlink" preserveAspectRatio="xMidYMid meet" viewBox="0 0 640 640" width="640" height="640"><defs><path d="M485.45 146.74C476.36 137.09 461.17 136.65 451.53 145.75C441.89 154.85 441.45 170.04 450.55 179.68C459.38 189.03 503.53 235.81 583.01 320C503.53 404.2 459.38 450.98 450.55 460.34C441.45 469.98 441.89 485.16 451.53 494.27C456.17 498.64 462.09 500.81 468 500.81C474.37 500.81 480.74 498.28 485.45 493.3C500.25 477.62 618.65 352.17 633.45 336.49C642.18 327.23 642.18 312.78 633.45 303.54C603.85 272.18 500.25 162.42 485.45 146.74Z" id="b5bt0gPkx"></path><path d="M57.01 320C136.48 235.8 180.63 189.03 189.46 179.67C198.55 170.03 198.11 154.84 188.47 145.74C178.84 136.65 163.64 137.09 154.55 146.73C139.75 162.41 21.35 287.85 6.55 303.53C-2.18 312.78 -2.18 327.23 6.55 336.48C21.35 352.16 139.75 477.61 154.55 493.29C159.27 498.29 165.63 500.81 172.01 500.81C177.91 500.81 183.84 498.63 188.47 494.26C198.12 485.16 198.55 469.97 189.46 460.33C171.8 441.62 127.65 394.84 57.01 320Z" id="cKFs7DGd"></path><path d="M331.48 85.98C324.44 132.06 268.12 500.7 261.08 546.78C259.08 559.88 268.08 572.13 281.18 574.13C282.41 574.31 283.63 574.4 284.84 574.4C296.49 574.4 306.72 565.9 308.53 554.03C315.57 507.95 371.89 139.3 378.93 93.22C380.93 80.12 371.93 67.87 358.83 65.87C345.73 63.89 333.48 72.88 331.48 85.98Z" id="aiTJo4u8U"></path></defs><g><g><g><use xlink:href="#b5bt0gPkx" opacity="1" fill="#ffffff" fill-opacity="1"></use><g><use xlink:href="#b5bt0gPkx" opacity="1" fill-opacity="0" stroke="#000000" stroke-width="1" stroke-opacity="0"></use></g></g><g><use xlink:href="#cKFs7DGd" opacity="1" fill="#ffffff" fill-opacity="1"></use><g><use xlink:href="#cKFs7DGd" opacity="1" fill-opacity="0" stroke="#000000" stroke-width="1" stroke-opacity="0"></use></g></g><g><use xlink:href="#aiTJo4u8U" opacity="1" fill="#ffffff" fill-opacity="1"></use><g><use xlink:href="#aiTJo4u8U" opacity="1" fill-opacity="0" stroke="#000000" stroke-width="1" stroke-opacity="0"></use></g></g></g></g></svg>