<?xml version="1.0" encoding="UTF-8" standalone="no"?>
<!DOCTYPE svg PUBLIC "-//W3C//DTD SVG 1.1//EN" "http://www.w3.org/Graphics/SVG/1.1/DTD/svg11.dtd">
<svg version="1.1" xmlns="http://www.w3.org/2000/svg" xmlns:xlink="http://www.w3.org/1999/xlink" preserveAspectRatio="xMidYMid meet" viewBox="0 0 640 640" width="640" height="640"><defs><path d="M649.38 -70.19C649.38 -70.19 649.38 -70.19 649.38 -70.19C649.38 378.78 649.38 628.21 649.38 678.09C649.38 678.09 649.38 678.09 649.38 678.09C200.41 678.09 -49.02 678.09 -98.9 678.09C-98.9 678.09 -98.9 678.09 -98.9 678.09C-98.9 229.13 -98.9 -20.3 -98.9 -70.19C-98.9 -70.19 -98.9 -70.19 -98.9 -70.19C350.07 -70.19 599.49 -70.19 649.38 -70.19Z" id="ca7G0o6n"></path><path d="M215.6 170.59C216.95 184.03 227.75 291.56 229.1 305C229.35 311.25 234.62 316.12 240.87 315.86C247.11 315.62 251.97 310.35 251.73 304.1C250.91 280.09 244.36 88.06 243.54 64.05C242.95 47.07 256.22 32.82 273.2 32.22C290.19 31.61 304.44 44.89 305.05 61.87C305.85 85.68 312.25 276.18 313.05 300C313.05 305.03 317.13 309.11 322.16 309.11C327.2 309.11 331.27 305.03 331.27 300C331.27 272.88 331.28 55.96 331.28 28.85C331.28 11.87 345.06 -1.91 362.05 -1.91C379.04 -1.91 392.81 11.87 392.81 28.85C392.84 55.46 393.01 268.33 393.04 294.94C393.04 300.66 397.67 305.26 403.39 305.29C411.76 305.33 413.41 297.47 413.41 297.47C413.61 296.65 423.67 61.03 423.67 61.03C424.55 44.06 439.03 31.02 455.99 31.91C472.96 32.79 486.01 47.28 485.11 64.24C483.52 97.93 470.78 367.45 469.19 401.14C467.58 411.26 474.49 420.76 484.61 422.37C494.74 423.98 504.24 417.09 505.85 406.96C508.78 395.01 532.27 299.39 535.2 287.44C539.24 270.92 555.89 260.82 572.39 264.85C588.9 268.89 599.01 285.55 594.97 302.05C590.1 321.97 551.13 481.32 546.26 501.23C545.36 504.89 475.82 629.17 450.46 635.14C450.46 642.06 450.46 697.39 450.46 704.31C450.46 726.44 432.52 744.37 410.4 744.37C396.78 744.37 287.79 744.37 274.17 744.37C252.05 744.37 234.11 726.44 234.11 704.31C234.11 696.73 234.11 636.1 234.11 628.52C198.23 582.6 184.57 496.41 183.99 422.19C182.25 397.34 168.33 198.52 166.59 173.67C165.41 156.7 170.16 143.16 186.76 140.9C204.86 138.44 214.42 153.64 215.6 170.59Z" id="a1MogMg4kt"></path><path d="" id="a89809BMBG"></path><path d="M211.78 163.1C211.78 174.9 202.41 184.46 190.87 184.46C179.32 184.46 169.96 174.9 169.96 163.1C169.96 151.3 179.32 141.73 190.87 141.73C202.41 141.73 211.78 151.3 211.78 163.1Z" id="a1donwKLan"></path><path d="M253.81 307.62L244.76 75.24" id="eenhLjuq4"></path><path d="M167.62 168.1L214.76 163.33C223.62 251.33 228.54 300.22 229.52 310C230 310.48 212.86 364.76 178.1 318.1" id="a1pJJcq35P"></path><path d="M213.29 164.52C213.29 177.02 202.73 187.14 189.71 187.14C176.7 187.14 166.14 177.02 166.14 164.52C166.14 152.03 176.7 141.9 189.71 141.9C202.73 141.9 213.29 152.03 213.29 164.52Z" id="bpqIVltw"></path><path d="M305.71 65.67C305.71 84.87 292.07 100.43 275.24 100.43C258.41 100.43 244.76 84.87 244.76 65.67C244.76 46.47 258.41 30.9 275.24 30.9C292.07 30.9 305.71 46.47 305.71 65.67Z" id="d1J7lwqkAI"></path><path d="M247.19 123.29C247.67 123.76 246.24 69.95 246.24 69.95C246.24 69.95 306.71 60.43 306.24 59.95C306.71 60.43 314.81 299.95 314.33 299.48C314.81 299.95 294.81 354.24 254.33 305.19C252.9 268.81 247.9 141.48 247.19 123.29Z" id="a1NrjMX3j5"></path><path d="M393.64 29.58C393.64 47.26 380.21 61.58 363.64 61.58C347.07 61.58 333.64 47.26 333.64 29.58C333.64 11.91 347.07 -2.42 363.64 -2.42C380.21 -2.42 393.64 11.91 393.64 29.58Z" id="bOm4GbCDa"></path><path d="M333.64 300.59C358.64 333.59 395.64 299.59 395.01 299.01C395.64 299.59 393.64 35.58 393.01 35C393.64 35.58 332.64 30.58 332.01 30" id="b53wgVCk6"></path><path d="M486.64 64.08C486.64 82.59 472.54 97.59 455.14 97.59C437.74 97.59 423.64 82.59 423.64 64.08C423.64 45.58 437.74 30.58 455.14 30.58C472.54 30.58 486.64 45.58 486.64 64.08Z" id="bmXKJ13l"></path><path d="M415.64 300.59C436.94 341.59 474.47 308.59 473.83 308.01C474.47 308.59 487.65 68.58 487.01 68C487.65 68.58 424.77 64.58 424.13 64" id="bTBLTTiWM"></path><path d="M596.65 295.59C596.65 313.26 582.77 327.59 565.64 327.59C548.52 327.59 534.64 313.26 534.64 295.59C534.64 277.92 548.52 263.59 565.64 263.59C582.77 263.59 596.65 277.92 596.65 295.59Z" id="b4jyKYd4sZ"></path><path d="M503.64 418.59C496.64 482.6 560.64 448.59 560.02 448.01C560.64 448.59 595.65 303.59 595.02 303.01C595.65 303.59 538.64 282.59 538.64 282.59" id="a1HTyshJ7V"></path></defs><g><g><g><use xlink:href="#ca7G0o6n" opacity="1" fill="#000000" fill-opacity="0"></use><g><use xlink:href="#ca7G0o6n" opacity="1" fill-opacity="0" stroke="#000000" stroke-width="1" stroke-opacity="0"></use></g></g><g><use xlink:href="#a1MogMg4kt" opacity="1" fill="#d3c26b" fill-opacity="1"></use><g><use xlink:href="#a1MogMg4kt" opacity="1" fill-opacity="0" stroke="#000000" stroke-width="0" stroke-opacity="1"></use></g></g><g><use xlink:href="#a89809BMBG" opacity="1" fill="#e8760b" fill-opacity="0.6"></use><g><use xlink:href="#a89809BMBG" opacity="1" fill-opacity="0" stroke="#000000" stroke-width="1.5" stroke-opacity="1"></use></g></g><g><use xlink:href="#a1donwKLan" opacity="1" fill="#000000" fill-opacity="0"></use><g><use xlink:href="#a1donwKLan" opacity="1" fill-opacity="0" stroke="#000000" stroke-width="0" stroke-opacity="0"></use></g></g><g><use xlink:href="#eenhLjuq4" opacity="1" fill="#000000" fill-opacity="1"></use><g><use xlink:href="#eenhLjuq4" opacity="1" fill-opacity="0" stroke="#000000" stroke-width="0" stroke-opacity="1"></use></g></g><g><use xlink:href="#a1pJJcq35P" opacity="1" fill="#2d6187" fill-opacity="1"></use><g><use xlink:href="#a1pJJcq35P" opacity="1" fill-opacity="0" stroke="#000000" stroke-width="0" stroke-opacity="1"></use></g></g><g><use xlink:href="#bpqIVltw" opacity="1" fill="#2d6187" fill-opacity="1"></use><g><use xlink:href="#bpqIVltw" opacity="1" fill-opacity="0" stroke="#000000" stroke-width="0" stroke-opacity="1"></use></g></g><g><use xlink:href="#d1J7lwqkAI" opacity="1" fill="#2d6187" fill-opacity="1"></use><g><use xlink:href="#d1J7lwqkAI" opacity="1" fill-opacity="0" stroke="#000000" stroke-width="0" stroke-opacity="1"></use></g></g><g><use xlink:href="#a1NrjMX3j5" opacity="1" fill="#2d6187" fill-opacity="1"></use><g><use xlink:href="#a1NrjMX3j5" opacity="1" fill-opacity="0" stroke="#000000" stroke-width="0" stroke-opacity="1"></use></g></g><g><use xlink:href="#bOm4GbCDa" opacity="1" fill="#2d6187" fill-opacity="1"></use><g><use xlink:href="#bOm4GbCDa" opacity="1" fill-opacity="0" stroke="#000000" stroke-width="0" stroke-opacity="1"></use></g></g><g><use xlink:href="#b53wgVCk6" opacity="1" fill="#2d6187" fill-opacity="1"></use><g><use xlink:href="#b53wgVCk6" opacity="1" fill-opacity="0" stroke="#000000" stroke-width="0" stroke-opacity="1"></use></g></g><g><use xlink:href="#bmXKJ13l" opacity="1" fill="#2d6187" fill-opacity="1"></use><g><use xlink:href="#bmXKJ13l" opacity="1" fill-opacity="0" stroke="#000000" stroke-width="0" stroke-opacity="1"></use></g></g><g><use xlink:href="#bTBLTTiWM" opacity="1" fill="#2d6187" fill-opacity="1"></use><g><use xlink:href="#bTBLTTiWM" opacity="1" fill-opacity="0" stroke="#000000" stroke-width="0" stroke-opacity="1"></use></g></g><g><use xlink:href="#b4jyKYd4sZ" opacity="1" fill="#2d6187" fill-opacity="1"></use><g><use xlink:href="#b4jyKYd4sZ" opacity="1" fill-opacity="0" stroke="#000000" stroke-width="0" stroke-opacity="1"></use></g></g><g><use xlink:href="#a1HTyshJ7V" opacity="1" fill="#2d6187" fill-opacity="1"></use><g><use xlink:href="#a1HTyshJ7V" opacity="1" fill-opacity="0" stroke="#000000" stroke-width="0" stroke-opacity="1"></use></g></g></g></g></svg>