<?xml version="1.0"?>
<svg xmlns="http://www.w3.org/2000/svg" xmlns:xlink="http://www.w3.org/1999/xlink" xmlns:svgjs="http://svgjs.com/svgjs" version="1.1" width="512" height="512" x="0" y="0" viewBox="0 0 24 24" style="enable-background:new 0 0 512 512" xml:space="preserve" class=""><g><g xmlns="http://www.w3.org/2000/svg"><path d="m11.25 20c-.14 0-.278-.039-.4-.116l-4.567-2.884h-2.033c-.689 0-1.25-.561-1.25-1.25v-3.5c0-.689.561-1.25 1.25-1.25h2.033l4.566-2.884c.229-.146.521-.155.763-.023.24.132.388.384.388.657v10.5c0 .273-.148.525-.388.657-.113.062-.238.093-.362.093zm-6.75-4.5h2c.142 0 .28.04.4.116l3.6 2.273v-7.779l-3.6 2.273c-.12.077-.258.117-.4.117h-2z" fill="#ffffff" data-original="#000000" style="" class=""/></g><g xmlns="http://www.w3.org/2000/svg"><path d="m15.251 17.61c-.271 0-.533-.147-.667-.404-.19-.367-.047-.82.32-1.012.999-.518 1.596-1.339 1.596-2.194s-.597-1.676-1.596-2.194c-.367-.191-.511-.645-.32-1.012.191-.366.645-.508 1.012-.32 1.506.782 2.404 2.1 2.404 3.526s-.898 2.744-2.404 3.526c-.111.057-.229.084-.345.084z" fill="#ffffff" data-original="#000000" style="" class=""/></g><g xmlns="http://www.w3.org/2000/svg"><path d="m17.25 19.5c-.292 0-.57-.172-.69-.458-.162-.382.017-.821.398-.982 1.521-.643 2.542-2.275 2.542-4.06s-1.021-3.417-2.542-4.06c-.382-.161-.561-.601-.398-.982.16-.382.603-.561.982-.398 2.101.886 3.458 3.022 3.458 5.44s-1.357 4.554-3.458 5.44c-.096.041-.194.06-.292.06z" fill="#ffffff" data-original="#000000" style="" class=""/></g><g xmlns="http://www.w3.org/2000/svg"><path d="m11.75 16.25c-.265 0-.514-.045-.762-.137-.388-.145-.586-.576-.441-.965.145-.388.571-.587.965-.441.46.175.988-.207.988-.707s-.528-.882-.988-.707c-.39.146-.82-.054-.965-.441-.145-.389.054-.82.441-.965.248-.092.497-.137.762-.137 1.24 0 2.25 1.01 2.25 2.25s-1.01 2.25-2.25 2.25z" fill="#ffffff" data-original="#000000" style="" class=""/></g><g xmlns="http://www.w3.org/2000/svg"><path d="m21.25 23h-18.5c-1.517 0-2.75-1.233-2.75-2.75v-16.5c0-1.517 1.233-2.75 2.75-2.75h18.5c1.517 0 2.75 1.233 2.75 2.75v16.5c0 1.517-1.233 2.75-2.75 2.75zm-18.5-20.5c-.689 0-1.25.561-1.25 1.25v16.5c0 .689.561 1.25 1.25 1.25h18.5c.689 0 1.25-.561 1.25-1.25v-16.5c0-.689-.561-1.25-1.25-1.25z" fill="#ffffff" data-original="#000000" style="" class=""/></g><g xmlns="http://www.w3.org/2000/svg"><path d="m23.25 6h-22.5c-.414 0-.75-.336-.75-.75s.336-.75.75-.75h22.5c.414 0 .75.336.75.75s-.336.75-.75.75z" fill="#ffffff" data-original="#000000" style="" class=""/></g></g></svg>
