<?xml version="1.0"?>
<svg xmlns="http://www.w3.org/2000/svg" xmlns:xlink="http://www.w3.org/1999/xlink" xmlns:svgjs="http://svgjs.com/svgjs" version="1.1" width="512" height="512" x="0" y="0" viewBox="0 0 24 24" style="enable-background:new 0 0 512 512" xml:space="preserve" class=""><g><g xmlns="http://www.w3.org/2000/svg"><path d="m15.25 20c-.108 0-.217-.023-.317-.07l-3.87-1.81c-.376-.176-.537-.622-.362-.997.176-.374.621-.537.997-.362l2.803 1.311v-4.752c0-.414.336-.75.75-.75s.749.336.749.75v5.93c0 .257-.131.495-.348.633-.122.078-.261.117-.402.117z" fill="#ffffff" data-original="#000000" style="" class=""/></g><g xmlns="http://www.w3.org/2000/svg"><path d="m9.5 17h-2.25c-.238 0-.46-.062-.645-.182-.375-.218-.605-.624-.605-1.068v-3.5c0-.689.561-1.25 1.25-1.25h2.066l5.587-2.915c.231-.12.511-.112.735.023s.362.379.362.642v2c0 .414-.336.75-.75.75s-.75-.336-.75-.75v-.763l-4.653 2.428c-.107.056-.226.085-.347.085h-2v3h2c.414 0 .75.336.75.75s-.336.75-.75.75z" fill="#ffffff" data-original="#000000" style="" class=""/></g><g xmlns="http://www.w3.org/2000/svg"><path d="m15.75 16.25c-.265 0-.514-.045-.762-.137-.388-.145-.586-.576-.441-.965.145-.388.571-.587.965-.441.46.175.988-.207.988-.707 0-.357-.241-.657-.588-.732-.35-.064-.617-.37-.617-.737 0-.414.331-.75.745-.75h.01c.05 0 .1.005.148.015 1.061.214 1.802 1.12 1.802 2.204 0 1.24-1.01 2.25-2.25 2.25z" fill="#ffffff" data-original="#000000" style="" class=""/></g><g xmlns="http://www.w3.org/2000/svg"><path d="m6.75 20c-.192 0-.384-.073-.53-.22-.293-.293-.293-.768 0-1.061l10.5-10.5c.293-.293.768-.293 1.061 0s.293.768 0 1.061l-10.5 10.5c-.147.147-.339.22-.531.22z" fill="#ffffff" data-original="#000000" style="" class=""/></g><g xmlns="http://www.w3.org/2000/svg"><path d="m21.25 23h-18.5c-1.517 0-2.75-1.233-2.75-2.75v-16.5c0-1.517 1.233-2.75 2.75-2.75h18.5c1.517 0 2.75 1.233 2.75 2.75v16.5c0 1.517-1.233 2.75-2.75 2.75zm-18.5-20.5c-.689 0-1.25.561-1.25 1.25v16.5c0 .689.561 1.25 1.25 1.25h18.5c.689 0 1.25-.561 1.25-1.25v-16.5c0-.689-.561-1.25-1.25-1.25z" fill="#ffffff" data-original="#000000" style="" class=""/></g><g xmlns="http://www.w3.org/2000/svg"><path d="m23.25 6h-22.5c-.414 0-.75-.336-.75-.75s.336-.75.75-.75h22.5c.414 0 .75.336.75.75s-.336.75-.75.75z" fill="#ffffff" data-original="#000000" style="" class=""/></g></g></svg>
