<svg width="746.279" height="746.279" xmlns="http://www.w3.org/2000/svg">
 <g>
  <title>background</title>
  <rect fill="none" id="canvas_background" height="748.279" width="748.279" y="-1" x="-1"/>
 </g>

 <g>
  <title>Layer 1</title>
  <g stroke="null" stroke-width="0" fill="#d3c26b" id="svg_1">
   <path stroke="null" fill="#d3c26b" id="svg_2" d="m186.757,140.89888c18.099,-2.46 27.659,12.74 28.846,29.688l13.495,134.416c0.252,6.244 5.518,11.114 11.769,10.862c6.244,-0.245 11.106,-5.51 10.862,-11.768l-8.186,-240.043c-0.597,-16.984 12.675,-31.234 29.658,-31.838c16.984,-0.604 31.234,12.675 31.846,29.651l8,238.13c0,5.036 4.085,9.114 9.113,9.114c5.036,0 9.114,-4.079 9.114,-9.114l0.007,-271.147c0,-16.983 13.775,-30.759 30.766,-30.759c16.99,0 30.766,13.775 30.766,30.759l0.223,266.091c0,5.719 4.634,10.322 10.358,10.351c8.366,0.043 10.014,-7.826 10.014,-7.826c0.201,-0.813 10.258,-236.439 10.258,-236.439c0.886,-16.969 15.364,-30.004 32.326,-29.112c16.971,0.877 30.013,15.365 29.119,32.327l-15.919,336.896c-1.611,10.121 5.294,19.623 15.415,21.234c10.129,1.611 19.631,-5.279 21.242,-15.408l29.355,-119.525c4.036,-16.516 20.688,-26.615 37.19,-22.587c16.509,4.042 26.615,20.695 22.58,37.197l-48.714,199.185c-0.899,3.654 -70.445,127.941 -95.803,133.904l0,69.172c0,22.127 -17.934,40.061 -40.053,40.061l-136.233,0c-22.126,0 -40.061,-17.934 -40.061,-40.061l0,-75.789c-35.88,-45.922 -49.541,-132.113 -50.116,-206.328l-17.408,-248.523c-1.179,-16.967 3.569,-30.513 20.171,-32.771z"/>
  </g>
  
  <g id="svg_3"/>
  <g id="svg_4"/>
  <g id="svg_5"/>
  <g id="svg_6"/>
  <g id="svg_7"/>
  <g id="svg_8"/>
  <g id="svg_9"/>
  <g id="svg_10"/>
  <g id="svg_11"/>
  <g id="svg_12"/>
  <g id="svg_13"/>
  <g id="svg_14"/>
  <g id="svg_15"/>
  <g id="svg_16"/>
  <g id="svg_17"/>
  <path id="svg_32" d="m113.6395,234.59262" opacity="0.5" fill-opacity="0.6" stroke-opacity="null" stroke-width="1.5" stroke="#000" fill="#e8760b"/>
  <ellipse ry="21.36367" rx="20.90913" id="svg_38" cy="163.09654" cx="190.86646" stroke-width="0" fill="none"/>
  <path id="svg_47" d="m253.80952,307.61904l-9.04761,-232.38095" opacity="0.5" fill-opacity="null" stroke-opacity="null" stroke-width="0" stroke="#000" fill="#e8760b"/>
  
  <g id="svg_18">
   <path id="svg_43" d="m167.61904,168.09523l47.14286,-4.7619l14.7619,146.66667c0.47619,0.47619 -16.66667,54.7619 -51.42857,8.09523" stroke-opacity="null" stroke-width="0" stroke="#000" fill="#cea4f9"/>
   <ellipse stroke="#000" ry="22.61905" rx="23.57143" id="svg_41" cy="164.52381" cx="189.71428" stroke-width="0" fill="#cea4f9"/>
  </g>

  <g id="svg_19">
   <ellipse stroke="#000" ry="34.7619" rx="30.47619" id="svg_45" cy="65.66667" cx="275.23809" stroke-opacity="null" stroke-width="0" fill="#cea4f9"/>
   <path id="svg_49" d="m254.33336,305.19047l-7.14285,-181.90476c0.47618,0.47619 -0.95239,-53.33333 -0.95239,-53.33333c0,0 60.47619,-9.52381 60,-10c0.47619,0.47619 8.57143,240 8.09524,239.52381c0.47619,0.47619 -19.52381,54.7619 -60,5.71428z" stroke-opacity="null" stroke-width="0" stroke="#000" fill="#cea4f9"/>
  </g>
  <g id="svg_20">
   <ellipse ry="32.00088" rx="30.00085" id="svg_50" cy="29.58328" cx="363.63921" stroke-opacity="null" stroke-width="0" fill="#cea4f9" stroke="#000"/>
   <path id="svg_56" d="m333.63841,300.59065c25.00069,33.0009 62.00171,-1.00003 61.37243,-1.58242c0.62928,0.58239 -1.37078,-263.42484 -2.00005,-264.00724c0.62927,0.5824 -60.3724,-4.41774 -61.00168,-5.00014" stroke-opacity="null" stroke-width="0" fill="#cea4f9" stroke="#000"/>
  </g>
  <g id="svg_21">
   <ellipse stroke="#000" ry="33.50092" rx="31.50086" id="svg_57" cy="64.08423" cx="455.14174" stroke-opacity="null" stroke-width="0" fill="#cea4f9"/>
   <path stroke="#000" id="svg_60" d="m415.64066,300.59062c21.29891,41.00113 58.82556,8.00022 58.18735,7.41783c0.63821,0.58239 13.82325,-239.42418 13.18504,-240.00658c0.63821,0.5824 -62.24428,-3.41771 -62.88249,-4.00011" stroke-opacity="null" stroke-width="0" fill="#cea4f9"/>
  </g>
  <g id="svg_22">
   <ellipse stroke="#000" ry="32.00088" rx="31.00085" id="svg_62" cy="295.59054" cx="565.6448" stroke-opacity="null" stroke-width="0" fill="#cea4f9"/>
   <path id="svg_65" d="m503.64307,418.59385c-7.00019,64.00176 57.00156,30.00083 56.3723,29.41844c0.62926,0.58239 35.63022,-144.42159 35.00096,-145.00398c0.62926,0.58239 -56.3723,-20.41818 -56.3723,-20.41818" stroke-opacity="null" stroke-width="0" stroke="#000" fill="#cea4f9"/>
  </g>
 </g>
</svg>